<svg width="22" height="22" viewBox="0 0 22 22" fill="none" xmlns="http://www.w3.org/2000/svg">
<path fill-rule="evenodd" clip-rule="evenodd" d="M9.5021 0.743637C9.5056 1.15784 9.1726 1.49646 8.7584 1.49997C7.04884 1.51447 5.78889 1.57006 4.81281 1.76125C3.85767 1.94835 3.22982 2.25532 2.74518 2.73996C2.17533 3.30981 1.84834 4.08078 1.67642 5.35954C1.50159 6.65987 1.5 8.36855 1.5 10.7474C1.5 13.1262 1.50159 14.8349 1.67642 16.1352C1.84834 17.414 2.17533 18.185 2.74518 18.7548C3.31503 19.3247 4.086 19.6517 5.36476 19.8236C6.66509 19.9984 8.37377 20 10.7526 20C13.1314 20 14.8401 19.9984 16.1405 19.8236C17.4192 19.6517 18.1902 19.3247 18.76 18.7548C19.2447 18.2702 19.5517 17.6423 19.7387 16.6872C19.9299 15.7111 19.9855 14.4512 20 12.7416C20.0035 12.3274 20.3422 11.9944 20.7564 11.9979C21.1706 12.0015 21.5035 12.3401 21.5 12.7543C21.4855 14.4587 21.4319 15.8468 21.2108 16.9755C20.9856 18.1252 20.5772 19.059 19.8207 19.8155C18.9257 20.7105 17.7854 21.1159 16.3403 21.3102C14.9285 21.5 13.119 21.5 10.81 21.5H10.6952C8.38623 21.5 6.57673 21.5 5.16488 21.3102C3.71979 21.1159 2.57952 20.7105 1.68452 19.8155C0.78952 18.9205 0.38408 17.7802 0.18979 16.3351C-1.98334e-05 14.9233 -9.85484e-06 13.1138 1.45161e-07 10.8048V10.69C-9.85484e-06 8.38101 -1.98334e-05 6.57151 0.18979 5.15967C0.38408 3.71458 0.78952 2.5743 1.68452 1.6793C2.44102 0.922798 3.37478 0.514427 4.52447 0.289227C5.65322 0.0681275 7.04131 0.0144775 8.74573 2.75014e-05C9.1599 -0.0034825 9.4985 0.329437 9.5021 0.743637ZM15.2197 0.219668C15.5126 -0.0732225 15.9874 -0.0732225 16.2803 0.219668L21.2803 5.21967C21.5732 5.51256 21.5732 5.98744 21.2803 6.28033L16.2803 11.2803C15.9874 11.5732 15.5126 11.5732 15.2197 11.2803C14.9268 10.9874 14.9268 10.5126 15.2197 10.2197L18.9393 6.5H12.75C11.1985 6.5 10.2828 7.25701 9.962 7.57933L9.7699 7.77244L9.5793 7.96204C9.257 8.28279 8.5 9.1985 8.5 10.75V13.75C8.5 14.1642 8.16421 14.5 7.75 14.5C7.33579 14.5 7 14.1642 7 13.75V10.75C7 8.66622 8.02703 7.39063 8.52125 6.89881L8.71178 6.7092L8.8988 6.52125C9.3906 6.02703 10.6662 5 12.75 5H18.9393L15.2197 1.28033C14.9268 0.987437 14.9268 0.512558 15.2197 0.219668Z" fill="#222D39"/>
</svg>
