<svg width="33" height="33" viewBox="0 0 33 33" fill="none" xmlns="http://www.w3.org/2000/svg">
<rect width="33" height="33" rx="16.5" fill="url(#paint0_linear_3274_7257)"/>
<path d="M22.0781 13.875C22.0781 16.2925 20.0921 18.3088 17.4844 18.7198V18.7969C17.4844 19.0579 17.3807 19.3083 17.1961 19.4929C17.0115 19.6775 16.7611 19.7812 16.5 19.7812C16.2389 19.7812 15.9885 19.6775 15.8039 19.4929C15.6193 19.3083 15.5156 19.0579 15.5156 18.7969V17.8125C15.5156 17.5514 15.6193 17.301 15.8039 17.1164C15.9885 16.9318 16.2389 16.8281 16.5 16.8281C18.4901 16.8281 20.1094 15.5033 20.1094 13.875C20.1094 12.2467 18.4901 10.9219 16.5 10.9219C14.5099 10.9219 12.8906 12.2467 12.8906 13.875C12.8906 14.1361 12.7869 14.3865 12.6023 14.5711C12.4177 14.7557 12.1673 14.8594 11.9062 14.8594C11.6452 14.8594 11.3948 14.7557 11.2102 14.5711C11.0256 14.3865 10.9219 14.1361 10.9219 13.875C10.9219 11.1614 13.4238 8.95312 16.5 8.95312C19.5762 8.95312 22.0781 11.1614 22.0781 13.875ZM16.5 21.4219C16.1755 21.4219 15.8583 21.5181 15.5885 21.6984C15.3187 21.8786 15.1084 22.1349 14.9843 22.4347C14.8601 22.7344 14.8276 23.0643 14.8909 23.3826C14.9542 23.7008 15.1105 23.9932 15.3399 24.2226C15.5693 24.452 15.8617 24.6083 16.1799 24.6716C16.4982 24.7349 16.8281 24.7024 17.1278 24.5782C17.4276 24.4541 17.6839 24.2438 17.8641 23.974C18.0444 23.7042 18.1406 23.387 18.1406 23.0625C18.1406 22.6274 17.9678 22.2101 17.6601 21.9024C17.3524 21.5947 16.9351 21.4219 16.5 21.4219Z" fill="#58B0BA"/>
<defs>
<linearGradient id="paint0_linear_3274_7257" x1="16.9714" y1="-81.5571" x2="16.9714" y2="145.2" gradientUnits="userSpaceOnUse">
<stop stop-color="white"/>
<stop offset="1" stop-color="#9EDBDE"/>
</linearGradient>
</defs>
</svg>
